<?xml version="1.0" encoding="UTF-8"?>
<svg id="katman_1" data-name="katman 1" xmlns="http://www.w3.org/2000/svg" viewBox="0 0 485 119.33">
  <defs>
    <style>
      .cls-1 {
        fill: #fff;
      }
    </style>
  </defs>
  <path class="cls-1" d="M82.11,63.24v53.81h-26.34v-45.03c0-8.62-5.37-14.31-13.66-14.31-9.1,0-15.12,5.85-15.12,14.63v44.71H.66V0h26.34v41.94c6.34-6.5,14.47-9.75,23.9-9.75,18.7,0,31.21,12.36,31.21,31.05Z"/>
  <path class="cls-1" d="M88.61,83.89v-49.75h26.34v46.01c0,8.13,5.36,13.33,13.33,13.33s13.33-5.2,13.33-13.33v-46.01h26.34v49.75c0,21.13-15.77,35.11-39.67,35.11s-39.67-13.98-39.67-35.11Z"/>
  <path class="cls-1" d="M306.94,62.75v54.3h-26.34v-46.33c0-7.8-4.88-13.01-12.52-13.01s-13.49,5.36-13.49,13.33v46.01h-26.34v-46.33c0-7.8-4.88-13.01-12.52-13.01s-13.66,5.36-13.66,13.33v46.01h-26.34V34.14h26.34v6.99c6.01-5.85,13.66-8.94,22.6-8.94,10.89,0,19.51,4.39,24.71,12.03,6.83-7.97,15.93-12.03,26.99-12.03,18.7,0,30.56,12.03,30.56,30.56Z"/>
  <path class="cls-1" d="M310.2,75.59c0-24.71,19.18-43.41,44.87-43.41s44.87,18.7,44.87,43.41-19.35,43.41-44.87,43.41-44.87-18.7-44.87-43.41ZM372.79,75.59c0-10.24-7.64-17.88-17.72-17.88s-17.88,7.64-17.88,17.88,7.64,17.88,17.88,17.88,17.72-7.64,17.72-17.88Z"/>
  <path class="cls-1" d="M455.54,32.84v27.15h-3.9c-13.49,0-20.81,7.48-20.81,19.18v37.88h-26.34V34.14h26.34v8.29c5.53-6.18,12.52-9.59,20.81-9.59h3.9Z"/>
  <path class="cls-1" d="M447.58,101.12c0-10.08,7.64-17.88,17.88-17.88s17.88,7.8,17.88,17.88-7.64,17.72-17.88,17.72-17.88-7.64-17.88-17.72Z"/>
</svg>